<svg width="40" height="40" viewBox="0 0 40 40" fill="currentColor" xmlns="http://www.w3.org/2000/svg">
<rect x="40.001" y="40" width="40.0007" height="39.9998" rx="19.9999" transform="rotate(-180 40.001 40)" fill="currentColor"/>
<path d="M18.3708 26.75C18.5758 26.75 18.7788 26.667 18.9278 26.503L24.0208 20.867C24.2468 20.633 24.3708 20.326 24.3708 20C24.3708 19.674 24.2468 19.367 24.0208 19.133L18.9268 13.497C18.6488 13.19 18.1748 13.166 17.8678 13.444C17.5608 13.722 17.5368 14.196 17.8138 14.503L22.7828 20L17.8138 25.497C17.5358 25.804 17.5598 26.279 17.8678 26.556C18.0118 26.686 18.1918 26.75 18.3708 26.75Z" fill="#808893"/>
</svg>
