<svg width="66" height="32" viewBox="0 0 66 32" fill="none" xmlns="http://www.w3.org/2000/svg">
<rect width="66" height="32" rx="7" fill="#34C759"/>
<path d="M30.11 19.8819C30.8867 20.6586 31.7066 21.3598 32.5696 21.9854C33.4326 22.6111 34.2956 23.1073 35.1586 23.4741C36.0216 23.8409 36.8387 24.0243 37.61 24.0243C38.1332 24.0243 38.6214 23.9299 39.0744 23.7411C39.5275 23.5523 39.9374 23.2557 40.3042 22.8511C40.52 22.6138 40.6899 22.3576 40.8139 22.0825C40.938 21.8128 41 21.5405 41 21.2654C41 21.0604 40.9595 20.8662 40.8786 20.6828C40.7977 20.4941 40.6602 20.3323 40.466 20.1974L37.9822 18.4337C37.7934 18.3042 37.6181 18.2071 37.4563 18.1424C37.2945 18.0777 37.1408 18.0453 36.9951 18.0453C36.8118 18.0453 36.6338 18.0965 36.4612 18.199C36.2886 18.2961 36.1106 18.4364 35.9272 18.6197L35.3528 19.1861C35.2718 19.2724 35.1694 19.3155 35.0453 19.3155C34.9806 19.3155 34.9186 19.3047 34.8592 19.2832C34.8053 19.2616 34.7594 19.2427 34.7217 19.2265C34.4682 19.0917 34.1446 18.8598 33.7508 18.5307C33.3571 18.1963 32.9606 17.8296 32.5615 17.4304C32.1677 17.0313 31.8037 16.6348 31.4693 16.2411C31.1348 15.8474 30.9029 15.5264 30.7735 15.2783C30.7519 15.2352 30.7303 15.1866 30.7087 15.1327C30.6926 15.0734 30.6845 15.014 30.6845 14.9547C30.6845 14.836 30.7249 14.7362 30.8058 14.6553L31.3803 14.0647C31.5583 13.8813 31.6985 13.7033 31.801 13.5307C31.9035 13.3581 31.9547 13.1802 31.9547 12.9968C31.9547 12.8511 31.9196 12.6974 31.8495 12.5356C31.7848 12.3738 31.685 12.1985 31.5502 12.0097L29.8107 9.55825C29.6704 9.36408 29.5032 9.22384 29.3091 9.13754C29.1149 9.04585 28.9099 9 28.6942 9C28.1386 9 27.6181 9.23463 27.1327 9.70388C26.7389 10.0814 26.4504 10.4995 26.267 10.9579C26.089 11.411 26 11.8964 26 12.4142C26 13.1909 26.1807 14.0081 26.5421 14.8657C26.9035 15.7179 27.3943 16.5728 28.0146 17.4304C28.6348 18.288 29.3333 19.1052 30.11 19.8819Z" fill="white"/>
</svg>
