<svg width="66" height="32" viewBox="0 0 66 32" fill="none" xmlns="http://www.w3.org/2000/svg">
<rect width="66" height="32" rx="7" fill="#FF453A"/>
<path d="M32.7587 12C31.5579 12 30.4013 12.0885 29.289 12.2656C28.1822 12.4372 27.1806 12.7028 26.2841 13.0625C25.3876 13.4222 24.6599 13.8815 24.101 14.4404C23.7192 14.8223 23.4342 15.2456 23.246 15.7104C23.0579 16.1698 22.9777 16.6789 23.0053 17.2378C23.0219 17.5754 23.08 17.888 23.1796 18.1758C23.2848 18.4635 23.437 18.7043 23.6362 18.8979C23.7856 19.0474 23.9571 19.1608 24.1508 19.2383C24.35 19.3102 24.5686 19.3268 24.8066 19.2881L27.8862 18.7651C28.34 18.6877 28.672 18.5438 28.8823 18.3335C29.0206 18.2007 29.1147 18.0347 29.1645 17.8354C29.2143 17.6362 29.2392 17.4066 29.2392 17.1465V16.3081C29.2392 16.1974 29.2862 16.0923 29.3803 15.9927C29.4191 15.9429 29.4661 15.9069 29.5214 15.8848C29.5823 15.8571 29.6349 15.8377 29.6791 15.8267C29.9614 15.7603 30.3736 15.7021 30.916 15.6523C31.4638 15.597 32.0781 15.5693 32.7587 15.5693C33.4394 15.5693 34.0509 15.5942 34.5932 15.644C35.1355 15.6883 35.5506 15.752 35.8383 15.835C35.8826 15.846 35.9296 15.8654 35.9794 15.8931C36.0348 15.9152 36.0846 15.9484 36.1289 15.9927C36.2119 16.0812 36.2561 16.1836 36.2617 16.2998L36.27 17.1465C36.2755 17.4066 36.3032 17.6362 36.353 17.8354C36.4028 18.0347 36.4941 18.2007 36.6269 18.3335C36.732 18.4386 36.8676 18.5272 37.0336 18.5991C37.1997 18.6711 37.3989 18.7264 37.6313 18.7651L40.6694 19.2798C40.9129 19.3241 41.137 19.3075 41.3417 19.23C41.552 19.147 41.7374 19.028 41.8979 18.873C42.2963 18.4857 42.5039 17.9378 42.5205 17.2295C42.5315 16.6706 42.4347 16.1615 42.2299 15.7021C42.0307 15.2373 41.743 14.8167 41.3666 14.4404C40.8077 13.876 40.0828 13.4139 39.1918 13.0542C38.3009 12.6945 37.3048 12.4289 36.2036 12.2573C35.1023 12.0858 33.9541 12 32.7587 12Z" fill="white"/>
</svg>
