<svg width="20" height="20" viewBox="0 0 20 20" fill="none" xmlns="http://www.w3.org/2000/svg">
<g id="Optical Zoom - Out">
<path id="Union" fill-rule="evenodd" clip-rule="evenodd" d="M14.5 9.25045C14.5 6.35524 12.145 4.00007 9.25 4.00007C6.355 4.00007 4 6.35524 4 9.25045C4 12.1457 6.355 14.5008 9.25 14.5008C10.498 14.5008 11.708 14.0548 12.655 13.2467L12.974 12.9737L13.247 12.6537C14.055 11.7076 14.5 10.4995 14.5 9.25045ZM3 9.25045C3 5.7982 5.798 3 9.25 3C12.702 3 15.5 5.7982 15.5 9.25045C15.5 10.7966 14.939 12.2127 14.007 13.3037C14.019 13.3127 14.031 13.3237 14.043 13.3357L16.853 16.1469C17.049 16.342 17.049 16.659 16.853 16.854C16.756 16.951 16.628 17 16.5 17C16.372 17 16.244 16.952 16.146 16.854L13.336 14.0428C13.324 14.0318 13.313 14.0198 13.304 14.0068C12.214 14.9379 10.797 15.5009 9.25 15.5009C5.798 15.5009 3 12.7017 3 9.25045ZM12.75 8.75C13.0261 8.75 13.25 8.97386 13.25 9.25C13.25 9.52614 13.0261 9.75 12.75 9.75H5.75C5.47386 9.75 5.25 9.52614 5.25 9.25C5.25 8.97386 5.47386 8.75 5.75 8.75H12.75Z" fill="currentColor"/>
</g>
</svg>
