<svg width="20" height="20" viewBox="0 0 20 20" fill="none" xmlns="http://www.w3.org/2000/svg">
<path fill-rule="evenodd" clip-rule="evenodd" d="M10 2C5.582 2 2 5.582 2 10C2 14.418 5.582 18 10 18C14.418 18 18 14.418 18 10C18 5.582 14.418 2 10 2ZM10 17C6.14 17 3 13.86 3 10C3 6.14 6.14 3 10 3C13.86 3 17 6.14 17 10C17 13.86 13.86 17 10 17ZM10 7.5C10.4142 7.5 10.75 7.16421 10.75 6.75C10.75 6.33579 10.4142 6 10 6C9.58579 6 9.25 6.33579 9.25 6.75C9.25 7.16421 9.58579 7.5 10 7.5ZM9.5 8.90039C9.5 8.62439 9.724 8.40039 10 8.40039C10.276 8.40039 10.5 8.62439 10.5 8.90039V13.5004C10.5 13.7764 10.276 14.0004 10 14.0004C9.724 14.0004 9.5 13.7764 9.5 13.5004V8.90039Z" fill="currentColor"/>
</svg>
